<svg width="182" height="44" fill="none" xmlns="http://www.w3.org/2000/svg"><path d="M72 33.832V11.656h14.976v4.192h-9.984V20.2h8.864v4.096h-8.864v5.344h10.72v4.192H72zM89.911 25.416c0-1.216.192-2.357.576-3.424a8.22 8.22 0 011.728-2.816 8.057 8.057 0 012.72-1.92c1.067-.47 2.283-.704 3.648-.704.896 0 1.718.085 2.464.256.747.15 1.472.373 2.176.672l-.992 3.808c-.448-.17-.938-.32-1.472-.448a7.689 7.689 0 00-1.792-.192c-1.408 0-2.464.437-3.168 1.312-.682.875-1.024 2.027-1.024 3.456 0 1.515.32 2.688.96 3.52.662.832 1.803 1.248 3.424 1.248.576 0 1.195-.053 1.856-.16a7.872 7.872 0 001.824-.512l.672 3.904c-.554.235-1.248.437-2.08.608-.832.17-1.75.256-2.752.256-1.536 0-2.858-.224-3.968-.672-1.11-.47-2.026-1.099-2.752-1.888a7.61 7.61 0 01-1.568-2.784c-.32-1.088-.48-2.261-.48-3.52zM121.643 25.384c0 1.323-.192 2.539-.576 3.648-.384 1.088-.939 2.027-1.664 2.816a7.564 7.564 0 01-2.624 1.792c-1.003.427-2.134.64-3.392.64-1.238 0-2.368-.213-3.392-.64a7.624 7.624 0 01-2.592-1.792c-.726-.79-1.291-1.728-1.696-2.816-.406-1.11-.608-2.325-.608-3.648s.202-2.528.608-3.616c.426-1.088 1.002-2.016 1.728-2.784a7.966 7.966 0 012.624-1.792c1.024-.427 2.133-.64 3.328-.64 1.216 0 2.325.213 3.328.64a7.564 7.564 0 012.624 1.792c.725.768 1.29 1.696 1.696 2.784.405 1.088.608 2.293.608 3.616zm-4.864 0c0-1.472-.299-2.624-.896-3.456-.576-.853-1.408-1.28-2.496-1.28s-1.931.427-2.528 1.28c-.598.832-.896 1.984-.896 3.456s.298 2.645.896 3.52c.597.853 1.44 1.28 2.528 1.28s1.92-.427 2.496-1.28c.597-.875.896-2.048.896-3.52zM132.056 34.152c-1.386-.021-2.517-.17-3.392-.448-.853-.277-1.536-.661-2.048-1.152a4.188 4.188 0 01-1.024-1.824 10.676 10.676 0 01-.256-2.432V9.768L130.104 9v18.336c0 .427.032.81.096 1.152.064.341.182.63.352.864.192.235.459.427.8.576.342.15.8.245 1.376.288l-.672 3.936zM134.661 25.544c0-1.493.224-2.795.672-3.904.47-1.13 1.078-2.07 1.824-2.816a7.563 7.563 0 012.56-1.696 8.192 8.192 0 013.008-.576c2.39 0 4.278.736 5.664 2.208 1.387 1.45 2.08 3.595 2.08 6.432 0 .277-.01.587-.032.928-.021.32-.042.608-.064.864h-10.816c.107.981.566 1.76 1.376 2.336.811.576 1.899.864 3.264.864.875 0 1.728-.075 2.56-.224.854-.17 1.547-.373 2.08-.608l.64 3.872a6.571 6.571 0 01-1.024.384c-.426.128-.906.235-1.44.32a17.08 17.08 0 01-1.664.256c-.597.064-1.194.096-1.792.096-1.514 0-2.837-.224-3.968-.672-1.109-.448-2.037-1.056-2.784-1.824A7.754 7.754 0 01135.173 29c-.341-1.067-.512-2.219-.512-3.456zm11.2-1.824a4.457 4.457 0 00-.224-1.184 2.63 2.63 0 00-.544-1.024 2.675 2.675 0 00-.928-.736c-.362-.192-.821-.288-1.376-.288-.533 0-.992.096-1.376.288-.384.17-.704.405-.96.704-.256.299-.458.65-.608 1.056a7.375 7.375 0 00-.288 1.184h6.304zM153.989 12.808l4.768-.768V17h5.728v3.968h-5.728v5.92c0 1.003.17 1.803.512 2.4.362.597 1.077.896 2.144.896.512 0 1.034-.043 1.568-.128a9.026 9.026 0 001.504-.416l.672 3.712c-.576.235-1.216.437-1.92.608-.704.17-1.568.256-2.592.256-1.302 0-2.379-.17-3.232-.512-.854-.363-1.536-.853-2.048-1.472-.512-.64-.875-1.408-1.088-2.304-.192-.896-.288-1.888-.288-2.976V12.808zM174.174 30.504c.47 0 .918-.01 1.345-.032a9.376 9.376 0 001.024-.096V26.76a8.833 8.833 0 00-.865-.128 9.614 9.614 0 00-1.056-.064 8.21 8.21 0 00-1.28.096 3.022 3.022 0 00-1.024.288c-.298.15-.533.352-.703.608-.171.256-.257.576-.257.96 0 .747.246 1.27.736 1.568.512.277 1.206.416 2.08.416zm-.384-13.952c1.408 0 2.582.16 3.521.48.938.32 1.685.779 2.239 1.376a4.981 4.981 0 011.217 2.176c.234.853.351 1.803.351 2.848v9.92c-.682.15-1.631.32-2.847.512-1.217.213-2.689.32-4.417.32-1.087 0-2.079-.096-2.975-.288-.875-.192-1.633-.501-2.273-.928a4.446 4.446 0 01-1.472-1.728c-.341-.704-.512-1.568-.512-2.592 0-.981.192-1.813.577-2.496a4.68 4.68 0 011.6-1.632c.661-.405 1.418-.693 2.272-.864a12.058 12.058 0 012.656-.288c.618 0 1.162.032 1.631.096a6.53 6.53 0 011.185.192v-.448c0-.81-.246-1.461-.736-1.952-.491-.49-1.344-.736-2.561-.736-.81 0-1.61.064-2.4.192-.789.107-1.472.267-2.047.48l-.609-3.84c.278-.085.619-.17 1.025-.256.426-.107.885-.192 1.375-.256.491-.085 1.003-.15 1.537-.192a14.488 14.488 0 011.663-.096z" fill="#322153"/><path d="M14.642 1.85l-4.575 8.736c-.295.564-.1 1.27.438 1.586l7.163 4.22c.546.322 1.24.124 1.55-.442L27.974 0H17.64c-1.25 0-2.401.71-2.998 1.85z" fill="#29A361"/><path d="M27.974 0l-8.756 15.95a1.116 1.116 0 01-1.55.442l-1.87-1.1c.456.075.93-.142 1.172-.582L25.047 0h2.927z" fill="#248F55"/><path d="M37.555 8.46L34.4 1.948C33.82.755 32.64.001 31.35.001h-9.123l7.005 12.316-.07.032c-.44.205-.422.86.03 1.04l6.048 2.407a.538.538 0 00.702-.324l2.332-6.292c.172-.466-.28-.915-.72-.72z" fill="#34CB79"/><path d="M38.275 9.179l-2.332 6.293a.537.537 0 01-.702.324l-1.83-.729 2.181-5.888a.567.567 0 00-.358-.744 1.015 1.015 0 01-.628-.526l-2.89-5.96C31.139.755 29.96 0 28.67 0h2.682c1.29 0 2.469.755 3.048 1.949l3.156 6.51c.44-.194.892.255.72.72z" fill="#2FB86E"/><path d="M31.46 33.56c-.086-.362-.536-.517-.81-.233l-4.728 4.9a.513.513 0 000 .708l4.746 4.918c.273.282.718.131.808-.224h6.979c1.285 0 2.46-.748 3.042-1.936l3.982-8.134H31.46z" fill="#29A361"/><path d="M37.35 33.56l2.264 3.548c.511.802.568 1.827.148 2.685l-.93 1.9c-.581 1.188-1.758 1.936-3.042 1.936h2.665c1.284 0 2.46-.748 3.042-1.935l3.982-8.135H37.35z" fill="#248F55"/><path d="M21.935 42.694v-8.658c0-.651-.509-1.179-1.137-1.179H2.068l4.82 9.171c.598 1.137 1.747 1.844 2.996 1.844h10.914c.628 0 1.137-.527 1.137-1.178z" fill="#29A361"/><path d="M10.011 32.858l-4.16 7.2-3.783-7.2h7.944zM21.935 34.036v8.658c0 .651-.509 1.178-1.137 1.178h-2.983c.628 0 1.137-.527 1.137-1.178v-8.658c0-.65-.51-1.178-1.137-1.178h2.983c.628 0 1.137.527 1.137 1.178z" fill="#248F55"/><path d="M12.785 25.207l-.841-6.56a.575.575 0 00-.642-.51l-6.354.876c-.479.066-.657.669-.33 1.005l-4.01 5.99a3.644 3.644 0 00-.192 3.706l4.364 8.303 7.085-12.266.008.006c.404.318.979-.029.912-.55z" fill="#34CB79"/><path d="M11.873 25.757l-.007-.006L4.78 38.016l-1.458-2.772 5.768-9.985.16-.277a.393.393 0 01.425-.184h.003a.582.582 0 00.665-.662l-.738-5.765 1.697-.233c.313-.043.6.185.642.508l.841 6.561c.067.521-.508.868-.912.55z" fill="#2FB86E"/><path d="M47.396 25.557L41.91 17.32a1.113 1.113 0 00-1.504-.352l-7.149 4.276c-.567.339-.741 1.104-.38 1.67l10.078 15.801 4.676-9.55a3.644 3.644 0 00-.235-3.608z" fill="#34CB79"/><path d="M47.63 29.165l-4.676 9.55-1.568-2.46 3.47-7.09a3.643 3.643 0 00-.234-3.608l-5.291-7.945 1.075-.643a1.112 1.112 0 011.504.351l5.486 8.237c.71 1.067.8 2.452.234 3.608z" fill="#2FB86E"/></svg>